<svg xmlns="http://www.w3.org/2000/svg" viewBox="0 0 400 500" role="img" aria-label="Brighton Linen Apron">
  <title>Brighton Linen Apron</title>
  <rect width="400" height="500" fill="#EDE6E1"/>
  <circle cx="172" cy="420" r="104" fill="#DFD4CC"/>
  <circle cx="308" cy="122" r="46" fill="#B4553C" opacity="0.14"/>
  <g transform="translate(0 44) rotate(-8 200 200)"
     fill="none" stroke="#544842" stroke-width="7" stroke-linejoin="round" opacity="0.85">
<path d="M152 168 h96 c26 22 40 54 40 92 v56 a12 12 0 0 1 -12 12 h-152 a12 12 0 0 1 -12 -12 v-56 c0 -38 14 -70 40 -92 z" />
    <path d="M170 168 c0 -22 14 -34 30 -34 s30 12 30 34" />
    <path d="M112 240 l-24 26 M288 240 l24 26" stroke-linecap="round" />
    <path d="M160 254 h80 v46 h-80 z" />
  </g>
</svg>
