<svg xmlns="http://www.w3.org/2000/svg" viewBox="0 0 400 500" role="img" aria-label="Collingwood Linen Tea Towel">
  <title>Collingwood Linen Tea Towel</title>
  <rect width="400" height="500" fill="#EDE6E1"/>
  <circle cx="178" cy="420" r="175" fill="#DFD4CC"/>
  <circle cx="272" cy="118" r="46" fill="#B4553C" opacity="0.14"/>
  <g transform="translate(0 44) rotate(1 200 200)"
     fill="none" stroke="#544842" stroke-width="7" stroke-linejoin="round" opacity="0.85">
<path d="M112 168 c30 -22 62 -22 92 0 s62 22 92 0 v40 c-30 22 -62 22 -92 0 s-62 -22 -92 0 z" />
    <path d="M112 236 c30 -22 62 -22 92 0 s62 22 92 0 v40 c-30 22 -62 22 -92 0 s-62 -22 -92 0 z" />
    <path d="M138 300 v26 M200 306 v26 M262 300 v26" stroke-linecap="round" />
  </g>
</svg>
